<svg xmlns="http://www.w3.org/2000/svg" xmlns:xlink="http://www.w3.org/1999/xlink" viewBox="0 0 56.56 124.07"><defs><style>.cls-1{isolation:isolate;}.cls-2{fill:url(#radial-gradient);}.cls-3{fill:url(#linear-gradient);}.cls-4{fill:url(#radial-gradient-2);}.cls-5{fill:url(#linear-gradient-2);}.cls-6{fill:url(#linear-gradient-3);}.cls-7{fill:url(#linear-gradient-4);}.cls-8{fill:url(#linear-gradient-5);}.cls-9{fill:url(#linear-gradient-6);}.cls-10{fill:url(#linear-gradient-7);}.cls-11{fill:url(#linear-gradient-8);}.cls-12{fill:url(#linear-gradient-9);}.cls-13{fill:url(#linear-gradient-10);}.cls-14{fill:#594a42;}.cls-15{fill:url(#linear-gradient-11);}.cls-16{fill:url(#linear-gradient-12);}.cls-17{fill:url(#linear-gradient-13);}.cls-18{fill:url(#linear-gradient-14);}.cls-19,.cls-32{mix-blend-mode:screen;}.cls-19{fill:url(#linear-gradient-15);}.cls-20{fill:url(#linear-gradient-16);}.cls-21{fill:url(#linear-gradient-17);}.cls-22{fill:url(#linear-gradient-18);}.cls-23{fill:url(#linear-gradient-19);}.cls-24{fill:url(#linear-gradient-20);}.cls-25{fill:url(#linear-gradient-21);}.cls-26{fill:url(#linear-gradient-22);}.cls-27{fill:url(#linear-gradient-23);}.cls-28{fill:url(#linear-gradient-24);}.cls-29{fill:#595959;}.cls-30{fill:#9e9e9e;}.cls-31{fill:url(#linear-gradient-25);}.cls-32{fill:url(#linear-gradient-26);}.cls-33{fill:url(#linear-gradient-27);}.cls-34{fill:url(#linear-gradient-28);}.cls-35{fill:#ffb600;}.cls-36{fill:#d6d6d6;}</style><radialGradient id="radial-gradient" cx="175.92" cy="-3913.76" r="31.15" gradientTransform="translate(0 9188.26) scale(1 2.33)" gradientUnits="userSpaceOnUse"><stop offset="0" stop-color="#f7f7f7"/><stop offset="1" stop-color="#a8abaa"/></radialGradient><linearGradient id="linear-gradient" x1="164" y1="26.5" x2="187.84" y2="26.5" gradientUnits="userSpaceOnUse"><stop offset="0" stop-color="#363b39"/><stop offset="1" stop-color="#1b1c1c"/></linearGradient><radialGradient id="radial-gradient-2" cx="175.92" cy="-5767.77" r="24.91" gradientTransform="translate(0 24808.87) scale(1 4.29)" gradientUnits="userSpaceOnUse"><stop offset="0" stop-color="#fff"/><stop offset="1" stop-color="#d2d6d5"/></radialGradient><linearGradient id="linear-gradient-2" x1="158.46" y1="75.43" x2="193.38" y2="75.43" gradientUnits="userSpaceOnUse"><stop offset="0"/><stop offset="1" stop-color="#1b1c1c"/></linearGradient><linearGradient id="linear-gradient-3" x1="155.7" y1="55.88" x2="196.14" y2="55.88" xlink:href="#linear-gradient-2"/><linearGradient id="linear-gradient-4" x1="155.88" y1="65.14" x2="195.96" y2="65.14" xlink:href="#linear-gradient"/><linearGradient id="linear-gradient-5" x1="157.24" y1="128.22" x2="194.6" y2="128.22" xlink:href="#linear-gradient-2"/><linearGradient id="linear-gradient-6" x1="158.55" y1="128.53" x2="193.29" y2="128.53" xlink:href="#linear-gradient"/><linearGradient id="linear-gradient-7" x1="154.33" y1="77.45" x2="158.28" y2="77.45" xlink:href="#linear-gradient"/><linearGradient id="linear-gradient-8" x1="193.56" y1="77.45" x2="197.51" y2="77.45" xlink:href="#linear-gradient"/><linearGradient id="linear-gradient-9" x1="154.61" y1="108.73" x2="158.7" y2="108.73" xlink:href="#linear-gradient"/><linearGradient id="linear-gradient-10" x1="193.14" y1="108.73" x2="197.23" y2="108.73" xlink:href="#linear-gradient"/><linearGradient id="linear-gradient-11" x1="160.07" y1="49.47" x2="166.3" y2="29.94" gradientUnits="userSpaceOnUse"><stop offset="0" stop-color="#d2dbda"/><stop offset="1" stop-color="#b5b5b5"/></linearGradient><linearGradient id="linear-gradient-12" x1="191.28" y1="50.65" x2="186.31" y2="30.94" xlink:href="#linear-gradient-11"/><linearGradient id="linear-gradient-13" x1="194.83" y1="53.61" x2="188.21" y2="27.33" xlink:href="#linear-gradient-11"/><linearGradient id="linear-gradient-14" x1="146.72" y1="53.61" x2="140.1" y2="27.33" gradientTransform="matrix(-1, 0, 0, 1, 303.73, 0)" xlink:href="#linear-gradient-11"/><linearGradient id="linear-gradient-15" x1="175.45" y1="60.95" x2="187.21" y2="69.32" gradientUnits="userSpaceOnUse"><stop offset="0" stop-color="#363b39"/><stop offset="1"/></linearGradient><linearGradient id="linear-gradient-16" x1="163.84" y1="76.61" x2="210.68" y2="153.5" gradientUnits="userSpaceOnUse"><stop offset="0" stop-color="#f7f7f7"/><stop offset="1" stop-color="#dbdbdb"/></linearGradient><linearGradient id="linear-gradient-17" x1="148.62" y1="16.09" x2="160.75" y2="51.01" xlink:href="#linear-gradient-16"/><linearGradient id="linear-gradient-18" x1="276.45" y1="16.09" x2="288.57" y2="51.02" gradientTransform="matrix(-1, 0, 0, 1, 479.7, 0)" xlink:href="#linear-gradient-16"/><linearGradient id="linear-gradient-19" x1="196.65" y1="60.91" x2="201.45" y2="70.2" xlink:href="#linear-gradient"/><linearGradient id="linear-gradient-20" x1="198.49" y1="63.67" x2="204.19" y2="63.67" gradientTransform="matrix(1, 0, 0, 1, 0, 0)" xlink:href="#radial-gradient-2"/><linearGradient id="linear-gradient-21" x1="198.49" y1="64.48" x2="204.19" y2="64.48" xlink:href="#linear-gradient"/><linearGradient id="linear-gradient-22" x1="153.53" y1="61.69" x2="157.71" y2="70.87" xlink:href="#linear-gradient"/><linearGradient id="linear-gradient-23" x1="147.63" y1="63.59" x2="153.33" y2="63.59" gradientUnits="userSpaceOnUse"><stop offset="0" stop-color="#d2d6d5"/><stop offset="1" stop-color="#fff"/></linearGradient><linearGradient id="linear-gradient-24" x1="147.63" y1="64.39" x2="153.33" y2="64.39" xlink:href="#linear-gradient"/><linearGradient id="linear-gradient-25" x1="168.24" y1="146.22" x2="183.58" y2="146.22" xlink:href="#linear-gradient"/><linearGradient id="linear-gradient-26" x1="167.39" y1="111.85" x2="176.6" y2="125.97" xlink:href="#linear-gradient-15"/><linearGradient id="linear-gradient-27" x1="162" y1="74.99" x2="172.98" y2="91.83" xlink:href="#linear-gradient"/><linearGradient id="linear-gradient-28" x1="163.62" y1="77.48" x2="173.32" y2="92.35" gradientUnits="userSpaceOnUse"><stop offset="0" stop-color="#1b1c1c"/><stop offset="1" stop-color="#363b39"/></linearGradient></defs><g class="cls-1"><g id="Layer_1" data-name="Layer 1"><path class="cls-2" d="M200.65,42.55c-.57-5.47-1.47-8.3-3.08-10.58a2.3,2.3,0,0,1-2-.47l-5.81-4.76a3.08,3.08,0,0,1-1.07-2l-.85-.32v6H164v-6l-.85.32a3.08,3.08,0,0,1-1.07,2l-5.81,4.76a2.3,2.3,0,0,1-2,.47c-1.61,2.28-2.51,5.11-3.08,10.58-1.5,14.48,1,37.24,1,42.85-.33,29.9-.55,48.1,1.22,54.4a5.66,5.66,0,0,0,2.34,3,2,2,0,0,1,.92-.22c2.08,0,3.09,1.51,5.38,1.08,1.51-.29,2,1.11,2.2,2.1,1.36.23,2.72.41,4,.54a1.14,1.14,0,0,1,.95-.54h13.44a1.13,1.13,0,0,1,1,.54c1-.09,2-.22,3-.37.15-1,.63-2.57,2.23-2.27,2.3.43,3.31-1.08,5.38-1.08a1.8,1.8,0,0,1,1.39.57,6,6,0,0,0,2.89-3.36c1.77-6.3,1.55-24.5,1.22-54.4C199.61,79.79,202.15,57,200.65,42.55Z" transform="translate(-147.63 -22.6)"/><path class="cls-3" d="M187.84,30.39v-6C181,22,170.8,22,164,24.37v6Z" transform="translate(-147.63 -22.6)"/><path class="cls-4" d="M199.17,43.45c-.92-9.09-2.78-10.61-7.36-14.87-6.21-5.78-25.57-5.78-31.78,0-4.58,4.26-6.44,5.78-7.36,14.87-1.41,13.94,1,35.84.92,41.24-.31,28.78-.52,46.3,1.15,52.37,1.92,7,21.18,6.61,21.18,6.61s19.25.38,21.18-6.61c1.67-6.07,1.46-23.59,1.15-52.37C198.19,79.29,200.58,57.39,199.17,43.45Z" transform="translate(-147.63 -22.6)"/><path class="cls-5" d="M166.44,73.5a29.94,29.94,0,0,0-8,2.39l.31,2a26.17,26.17,0,0,1,8.07-2.62,79.92,79.92,0,0,1,18.16,0,26.17,26.17,0,0,1,8.07,2.62l.31-2a29.94,29.94,0,0,0-8-2.39A87.09,87.09,0,0,0,166.44,73.5Z" transform="translate(-147.63 -22.6)"/><path class="cls-6" d="M157.22,58.55a40.07,40.07,0,0,1,8.54-3,46.74,46.74,0,0,1,20.32,0,40.07,40.07,0,0,1,8.54,3,3.85,3.85,0,0,1,1.34.88v-.06a5.22,5.22,0,0,0,.1-1.83c-.16-.33-.62-.65-1.45-1a40.07,40.07,0,0,0-8.54-3.05,47.05,47.05,0,0,0-20.32,0,40.07,40.07,0,0,0-8.54,3.05c-.83.4-1.29.72-1.45,1a5.22,5.22,0,0,0,.1,1.83v.06A3.85,3.85,0,0,1,157.22,58.55Z" transform="translate(-147.63 -22.6)"/><path class="cls-7" d="M166.44,73.5a87.09,87.09,0,0,1,19,0,29.94,29.94,0,0,1,8,2.39L196,59.43a3.85,3.85,0,0,0-1.34-.88,40.07,40.07,0,0,0-8.54-3,46.74,46.74,0,0,0-20.32,0,40.07,40.07,0,0,0-8.54,3,3.85,3.85,0,0,0-1.34.88l2.58,16.46A29.94,29.94,0,0,1,166.44,73.5Z" transform="translate(-147.63 -22.6)"/><path class="cls-8" d="M193.73,121.07c-.14-.72-.31-1.43-.51-2.15a7.08,7.08,0,0,1-.75.34c-1.86.75-7.18,2.51-16.55,2.51a50.48,50.48,0,0,1-16.54-2.55c-.5-.18-.76-.3-.76-.3-.19.69-.35,1.39-.5,2.08a49,49,0,0,0-.72,13.23,44,44,0,0,0,9.16,2.71,76.14,76.14,0,0,0,18.72,0,44,44,0,0,0,9.16-2.71A49.23,49.23,0,0,0,193.73,121.07Zm-.59,11.44a38.71,38.71,0,0,1-8.52,2.71,65.82,65.82,0,0,1-17.4,0,38.71,38.71,0,0,1-8.52-2.71,53.27,53.27,0,0,1,.34-11.26,66.56,66.56,0,0,0,16.88,2,62.63,62.63,0,0,0,16.89-2A52.79,52.79,0,0,1,193.14,132.51Z" transform="translate(-147.63 -22.6)"/><path class="cls-9" d="M159,121.25a53.27,53.27,0,0,0-.34,11.26,38.71,38.71,0,0,0,8.52,2.71,65.82,65.82,0,0,0,17.4,0,38.71,38.71,0,0,0,8.52-2.71,52.79,52.79,0,0,0-.33-11.17,62.63,62.63,0,0,1-16.89,2A66.56,66.56,0,0,1,159,121.25Z" transform="translate(-147.63 -22.6)"/><path class="cls-10" d="M154.88,94.75l3.4,1.29-.58-17-3.24-20.17s-.29,5.18,0,12.59c.17,4.69.68,11.14.67,15.3C155.12,90.7,155,93.38,154.88,94.75Z" transform="translate(-147.63 -22.6)"/><path class="cls-11" d="M197,94.75,193.56,96l.58-17,3.24-20.17s.28,5.18,0,12.59c-.17,4.69-.68,11.14-.67,15.3C196.72,90.7,196.83,93.41,197,94.75Z" transform="translate(-147.63 -22.6)"/><path class="cls-12" d="M154.78,96.33,158.3,98l.4,14.23a22.21,22.21,0,0,1-1.62,4.69,20.44,20.44,0,0,1-2.3,4.25S154.4,101.65,154.78,96.33Z" transform="translate(-147.63 -22.6)"/><path class="cls-13" d="M197.06,96.33,193.54,98l-.4,14.23a22.21,22.21,0,0,0,1.62,4.69,20.44,20.44,0,0,0,2.3,4.25S197.44,101.65,197.06,96.33Z" transform="translate(-147.63 -22.6)"/><path class="cls-14" d="M162,143.67c-2.29.43-3.3-1.08-5.38-1.08a2,2,0,0,0-.92.22c2.11,1.47,5.29,2.39,8.5,3C164.05,144.78,163.54,143.38,162,143.67Z" transform="translate(-147.63 -22.6)"/><path class="cls-14" d="M188.79,143.67c-1.6-.3-2.08,1.28-2.23,2.27a25.66,25.66,0,0,0,9-2.78,1.8,1.8,0,0,0-1.39-.57C192.1,142.59,191.09,144.1,188.79,143.67Z" transform="translate(-147.63 -22.6)"/><path class="cls-15" d="M159.76,52.33s3.93-8,4.47-11c.41-2.28-.23-9.3-.23-9.3s-.43,6.69-.85,8.87C162.58,43.85,159.76,52.33,159.76,52.33Z" transform="translate(-147.63 -22.6)"/><path class="cls-16" d="M192.12,52.33s-3.93-8-4.47-11c-.41-2.28.24-9.3.24-9.3s.42,6.69.84,8.87C189.3,43.85,192.12,52.33,192.12,52.33Z" transform="translate(-147.63 -22.6)"/><path class="cls-17" d="M197.15,55.55S190.71,45,189.83,41.07c-.67-3,.38-12.25.38-12.25s.7,8.81,1.39,11.68C192.53,44.39,197.15,55.55,197.15,55.55Z" transform="translate(-147.63 -22.6)"/><path class="cls-18" d="M154.69,55.55S161.13,45,162,41.07c.67-3-.38-12.25-.38-12.25s-.7,8.81-1.39,11.68C159.31,44.39,154.69,55.55,154.69,55.55Z" transform="translate(-147.63 -22.6)"/><path class="cls-19" d="M194.62,58.55a40.07,40.07,0,0,0-8.54-3,35.88,35.88,0,0,0-4.77-.82c-4.29,5.16-9.37,14.51-11.45,18.48a89,89,0,0,1,15.54.34,29.94,29.94,0,0,1,8,2.39L196,59.43A3.85,3.85,0,0,0,194.62,58.55Z" transform="translate(-147.63 -22.6)"/><path class="cls-20" d="M175.92,76.57c-12.45-.32-16.63,2.21-16.63,2.21s.15,33.69,1.1,37c.65,2.27,8.49,3.27,13.47,3.69H178c5-.42,12.82-1.42,13.47-3.69,1-3.35,1.1-37,1.1-37S188.37,76.25,175.92,76.57Z" transform="translate(-147.63 -22.6)"/><path class="cls-21" d="M162.06,27.82a18.07,18.07,0,0,0-8.29,13.62c-.81,9.6-.7,14.44-.7,14.44S155.64,32.92,162.06,27.82Z" transform="translate(-147.63 -22.6)"/><path class="cls-22" d="M189.82,27.82a18.07,18.07,0,0,1,8.29,13.62c.82,9.6.7,14.44.7,14.44S196.24,32.92,189.82,27.82Z" transform="translate(-147.63 -22.6)"/><path class="cls-23" d="M197.24,60.11a2.54,2.54,0,0,1,2,2.29c0,1.86-1.94,5.63-2,3.24A46.12,46.12,0,0,1,197.24,60.11Z" transform="translate(-147.63 -22.6)"/><path class="cls-24" d="M204,64.19c-.42-.65-4.34-2-4.34-2-.77-.29-1,.48-1.12,1.13l5.61,1.9A1.3,1.3,0,0,0,204,64.19Z" transform="translate(-147.63 -22.6)"/><path class="cls-25" d="M198.54,63.32a5.27,5.27,0,0,0,0,.79L204,65.64a2,2,0,0,0,.15-.42Z" transform="translate(-147.63 -22.6)"/><path class="cls-26" d="M154.57,60s-2.06.43-2.11,2.29,2.07,5.63,2.11,3.25A40.5,40.5,0,0,0,154.57,60Z" transform="translate(-147.63 -22.6)"/><path class="cls-27" d="M152.16,62.06s-3.91,1.36-4.34,2a1.31,1.31,0,0,0-.12,1.12l5.6-1.92C153.22,62.6,153,61.76,152.16,62.06Z" transform="translate(-147.63 -22.6)"/><path class="cls-28" d="M147.7,65.18a1.83,1.83,0,0,0,.12.34L153.33,64a6.09,6.09,0,0,0,0-.72Z" transform="translate(-147.63 -22.6)"/><path class="cls-29" d="M152.23,84.53a.55.55,0,0,0-.52.58V89.9a.55.55,0,0,0,.52.57Z" transform="translate(-147.63 -22.6)"/><path class="cls-29" d="M152,108.48a.55.55,0,0,0-.52.58v4.78a.55.55,0,0,0,.52.58Z" transform="translate(-147.63 -22.6)"/><path class="cls-29" d="M199.61,84.53a.55.55,0,0,1,.52.58V89.9a.55.55,0,0,1-.52.57Z" transform="translate(-147.63 -22.6)"/><path class="cls-29" d="M199.87,108.48a.55.55,0,0,1,.52.58v4.78a.55.55,0,0,1-.52.58Z" transform="translate(-147.63 -22.6)"/><path class="cls-30" d="M164.67,50.59c.83-.07,1.24-.6,2.07-.67a.15.15,0,0,0,.13-.14.12.12,0,0,0-.13-.13c-.83.07-1.24.6-2.07.67a.15.15,0,0,0-.13.14A.12.12,0,0,0,164.67,50.59Z" transform="translate(-147.63 -22.6)"/><path class="cls-30" d="M166.74,50.19c-.83.08-1.24.6-2.07.68a.13.13,0,0,0-.13.14.13.13,0,0,0,.13.13c.83-.07,1.24-.6,2.07-.67a.15.15,0,0,0,.13-.15A.13.13,0,0,0,166.74,50.19Z" transform="translate(-147.63 -22.6)"/><path class="cls-30" d="M166.74,50.74c-.83.07-1.24.6-2.07.67a.15.15,0,0,0-.13.14.13.13,0,0,0,.13.14c.83-.08,1.24-.6,2.07-.68a.13.13,0,0,0,.13-.14A.13.13,0,0,0,166.74,50.74Z" transform="translate(-147.63 -22.6)"/><path class="cls-30" d="M187.16,50.59c-.84-.07-1.25-.6-2.08-.67a.15.15,0,0,1-.13-.14.12.12,0,0,1,.13-.13c.83.07,1.24.6,2.08.67a.15.15,0,0,1,.12.14C187.28,50.54,187.22,50.6,187.16,50.59Z" transform="translate(-147.63 -22.6)"/><path class="cls-30" d="M185.08,50.19c.83.08,1.24.6,2.07.68a.13.13,0,0,1,.13.14c0,.07-.06.14-.12.13-.84-.07-1.25-.6-2.08-.67a.15.15,0,0,1-.13-.15A.13.13,0,0,1,185.08,50.19Z" transform="translate(-147.63 -22.6)"/><path class="cls-30" d="M185.08,50.74c.83.07,1.24.6,2.08.67a.15.15,0,0,1,.12.14.13.13,0,0,1-.12.14c-.84-.08-1.25-.6-2.08-.68a.13.13,0,0,1-.13-.14A.13.13,0,0,1,185.08,50.74Z" transform="translate(-147.63 -22.6)"/><path class="cls-31" d="M182.63,145.77H169.19a1.14,1.14,0,0,0-.95.54,81.89,81.89,0,0,0,15.34,0A1.13,1.13,0,0,0,182.63,145.77Z" transform="translate(-147.63 -22.6)"/><path class="cls-32" d="M192.81,121.34a62.63,62.63,0,0,1-16.89,2c-1.72,0-3.34-.06-4.86-.16-4.83,2.21-7.75,9.12-8.44,10.89a39.31,39.31,0,0,0,4.6,1.2,65.82,65.82,0,0,0,17.4,0,38.71,38.71,0,0,0,8.52-2.71A52.79,52.79,0,0,0,192.81,121.34Z" transform="translate(-147.63 -22.6)"/><path class="cls-33" d="M187.79,101.52c0,1.67-1.95,3-4.36,3h-15c-2.42,0-4.37-1.35-4.37-3V91.14c0-1.67,1.95-3,4.37-3h15c2.41,0,4.36,1.35,4.36,3Z" transform="translate(-147.63 -22.6)"/><path class="cls-34" d="M186.65,100.81c0,1.44-1.77,2.61-4,2.61H169.12c-2.18,0-4-1.17-4-2.61v-9c0-1.44,1.77-2.61,4-2.61H182.7c2.18,0,4,1.17,4,2.61Z" transform="translate(-147.63 -22.6)"/><path class="cls-35" d="M154.27,32a2.3,2.3,0,0,0,2-.47l.9-.74-.32-1.66A20.44,20.44,0,0,0,154.27,32Z" transform="translate(-147.63 -22.6)"/><path class="cls-36" d="M156.85,29.1l.32,1.66,4.91-4a3.08,3.08,0,0,0,1.07-2A13.14,13.14,0,0,0,159,27.11C158.22,27.83,157.5,28.48,156.85,29.1Z" transform="translate(-147.63 -22.6)"/><path class="cls-35" d="M194.88,29l-.12,1.84.81.67a2.3,2.3,0,0,0,2,.47A20.87,20.87,0,0,0,194.88,29Z" transform="translate(-147.63 -22.6)"/><path class="cls-36" d="M192.82,27.11a13.14,13.14,0,0,0-4.13-2.42,3.08,3.08,0,0,0,1.07,2l5,4.09.12-1.84C194.26,28.41,193.57,27.79,192.82,27.11Z" transform="translate(-147.63 -22.6)"/></g></g></svg>